<svg width="29" height="30" viewBox="0 0 29 30" fill="none" xmlns="http://www.w3.org/2000/svg">
<path d="M14.1381 21.5886C15.1893 21.5886 16.1281 21.2323 16.9546 20.5197C17.7799 19.8083 18.3836 18.9138 18.7656 17.8363H9.52158C9.90356 18.9138 10.5057 19.8089 11.3279 20.5215C12.1502 21.2317 13.0869 21.5886 14.1381 21.5886ZM10.8486 15.4595C11.3347 15.4595 11.7453 15.2713 12.0804 14.8948C12.4156 14.5171 12.5831 14.0586 12.5831 13.5193C12.5831 12.9799 12.413 12.5243 12.0726 12.1525C11.7323 11.7806 11.3196 11.5946 10.8346 11.5946C10.3495 11.5946 9.93894 11.7835 9.60276 12.1611C9.26658 12.5388 9.09901 12.9967 9.10005 13.5349C9.10109 14.0731 9.27126 14.5287 9.61057 14.9017C9.94987 15.2747 10.3626 15.4607 10.8486 15.4595ZM17.4541 15.4595C17.9392 15.4595 18.3498 15.2713 18.6859 14.8948C19.0211 14.5171 19.1887 14.0586 19.1887 13.5193C19.1887 12.9811 19.0185 12.5261 18.6781 12.1542C18.3378 11.7812 17.9251 11.5946 17.4401 11.5946C16.954 11.5946 16.5434 11.7835 16.2083 12.1611C15.8731 12.5388 15.7056 12.9967 15.7056 13.5349C15.7056 14.0731 15.8758 14.5287 16.2161 14.9017C16.5564 15.2747 16.9691 15.4607 17.4541 15.4595ZM8.09462 7.09225L12.1663 1.07752C12.414 0.707955 12.7086 0.436553 13.0499 0.263318C13.3903 0.0877725 13.7546 0 14.1428 0C14.531 0 14.8958 0.0866178 15.2372 0.259853C15.5786 0.433088 15.8731 0.705068 16.1209 1.07579L20.1925 7.08879L26.4686 9.45865C27.0244 9.66653 27.4522 10.0159 27.752 10.5067C28.0528 10.9987 28.2032 11.5415 28.2032 12.1351C28.2032 12.4088 28.1667 12.6808 28.0939 12.9511C28.021 13.2213 27.9024 13.4806 27.7379 13.7289L23.6241 19.9186L23.7802 26.5535C23.8062 27.3689 23.5637 28.0555 23.0527 28.6133C22.5416 29.1711 21.9468 29.45 21.2682 29.45L20.5594 29.353L14.1428 27.2551L7.72617 29.353C7.59711 29.4107 7.47221 29.4413 7.35148 29.4448C7.2297 29.4483 7.11834 29.45 7.01738 29.45C6.32524 29.45 5.72677 29.1711 5.22197 28.6133C4.71718 28.0555 4.47831 27.3694 4.50537 26.5552L4.66149 19.8753L0.557041 13.7289C0.391552 13.4783 0.272378 13.2167 0.199521 12.9441C0.127705 12.6716 0.0917969 12.399 0.0917969 12.1265C0.0917969 11.5421 0.246358 10.9981 0.55548 10.4946C0.863561 9.99221 1.29446 9.63535 1.84817 9.424L8.09462 7.09225Z" fill="white"/>
</svg>
