<svg width="10" height="25" viewBox="0 0 10 25" fill="none" xmlns="http://www.w3.org/2000/svg">
<path d="M7.58997 0C6.99909 0 6.4324 0.246862 6.01458 0.686281C5.59676 1.1257 5.36203 1.72168 5.36203 2.34311C5.36203 2.96454 5.59676 3.56052 6.01458 3.99994C6.4324 4.43936 6.99909 4.68622 7.58997 4.68622C8.18086 4.68622 8.74755 4.43936 9.16537 3.99994C9.58319 3.56052 9.81792 2.96454 9.81792 2.34311C9.81792 1.72168 9.58319 1.1257 9.16537 0.686281C8.74755 0.246862 8.18086 0 7.58997 0ZM7.05527 7.45109C5.28777 7.6073 0.460559 11.6531 0.460559 11.6531C0.1635 11.8874 0.252618 11.8718 0.490265 12.3091C0.727912 12.7309 0.698206 12.7621 0.980412 12.5591C1.27747 12.356 1.76762 12.028 2.58453 11.4969C5.73336 9.37244 3.08953 14.2774 1.73791 22.5407C1.20321 26.6334 4.7085 24.5245 5.61453 23.8997C6.50571 23.2905 8.89703 21.5566 9.13468 21.3848C9.46144 21.1505 9.2238 20.963 8.9713 20.5725C8.79306 20.307 8.61483 20.4944 8.61483 20.4944C7.64938 21.1661 5.88188 22.572 5.64424 21.6816C5.36203 20.7912 7.17409 14.6835 8.16924 10.4815C8.33262 9.48179 8.77821 7.29488 7.05527 7.45109Z" fill="white"/>
</svg>
