<svg width="24" height="17" viewBox="0 0 24 17" fill="none" xmlns="http://www.w3.org/2000/svg">
<path d="M4.00484 1.1054C5.77425 0.0839103 7.84571 -0.247074 9.76363 0.185479C11.6816 0.618086 13.2884 1.77875 14.2314 3.41204L8.93844 6.46673L13.2002 13.8466H24V16.2167H0.29586V13.8466H9.52145L6.18063 8.0595L0.888634 11.1161C-0.0543718 9.48281 -0.256281 7.51006 0.328087 5.63274C0.912473 3.75541 2.23538 2.127 4.00484 1.1054ZM12.0449 13.8466H12.0459L8.07418 6.96771H8.0732L12.0449 13.8466ZM21.0371 0.216729C22.6734 0.216819 24 1.54324 24 3.17962C23.9998 4.81586 22.6733 6.14242 21.0371 6.14251C19.4007 6.14251 18.0743 4.81592 18.0742 3.17962C18.0742 1.54318 19.4006 0.216729 21.0371 0.216729Z" fill="white"/>
</svg>
