<svg width="18" height="16" viewBox="0 0 18 16" fill="none" xmlns="http://www.w3.org/2000/svg">
<path d="M14.3165 0.319494C14.6649 0.0761686 15.0834 -0.033582 15.5007 0.0089672C15.918 0.0515164 16.3082 0.243729 16.6047 0.552812C16.9013 0.861894 17.0858 1.2687 17.1268 1.70381C17.1678 2.13893 17.0627 2.5754 16.8296 2.93876L14.582 6.45243C13.5531 8.06189 12.0922 9.31952 10.3818 10.0682C10.147 9.36886 9.76417 8.73362 9.26171 8.20967C8.75925 7.68573 8.15006 7.28654 7.47937 7.04173C8.19769 5.25805 9.40418 3.73467 10.9481 2.66194L14.3165 0.319494ZM5.92435 8.61403C5.14208 8.61403 4.39184 8.93808 3.83868 9.51488C3.28553 10.0917 2.97477 10.874 2.97477 11.6897C2.97492 11.7919 2.95063 11.8926 2.90411 11.9826C2.85759 12.0725 2.7903 12.149 2.70833 12.2051C2.62636 12.2611 2.53228 12.295 2.4346 12.3036C2.33693 12.3122 2.23873 12.2953 2.14889 12.2544C1.98455 12.1792 1.80215 12.1578 1.62589 12.1932C1.44964 12.2285 1.28786 12.3189 1.16204 12.4524C1.03621 12.5859 0.952288 12.7561 0.921403 12.9405C0.890517 13.1248 0.914131 13.3147 0.98911 13.4847C1.38122 14.3789 2.05498 15.1062 2.8984 15.5457C3.74182 15.9853 4.70409 16.1106 5.62529 15.9009C6.54649 15.6912 7.37112 15.1591 7.96211 14.393C8.55311 13.6269 8.87488 12.6729 8.87394 11.6897C8.87394 10.874 8.56318 10.0917 8.01002 9.51488C7.45687 8.93808 6.70663 8.61403 5.92435 8.61403Z" fill="white"/>
</svg>
