<svg width="30" height="30" viewBox="0 0 30 30" fill="none" xmlns="http://www.w3.org/2000/svg">
<path d="M28.0019 11.295C29.9331 13.2439 29.9331 16.3849 28.0019 18.3338L18.2765 28.1482C16.3202 30.1223 13.1294 30.1223 11.1732 28.1481L1.44831 18.3337C-0.482769 16.3848 -0.482769 13.2439 1.44831 11.2951L11.1732 1.4807C13.1294 -0.493526 16.3202 -0.493572 18.2765 1.4806L28.0019 11.295ZM14.5763 18.5175C13.4004 18.5179 12.4466 19.4723 12.4465 20.6484C12.4467 21.8243 13.4004 22.7779 14.5763 22.7783C15.7526 22.7783 16.7069 21.8245 16.7072 20.6484C16.707 19.4721 15.7526 18.5175 14.5763 18.5175ZM14.5773 6.72064C13.6729 6.72102 12.9399 7.45484 12.9396 8.35931V15.4052C12.9397 16.3098 13.6728 17.0435 14.5773 17.0439C15.4822 17.0439 16.2159 16.31 16.216 15.4052V8.35931C16.2157 7.4546 15.4821 6.72064 14.5773 6.72064Z" fill="white"/>
</svg>
