<svg width="23" height="30" viewBox="0 0 23 30" fill="none" xmlns="http://www.w3.org/2000/svg">
<path d="M22.9082 4.41797V13.4004C22.9082 17.1307 21.8738 20.5241 19.8047 23.5801C17.7355 26.6361 15.1104 28.5932 11.9307 29.4512C8.75187 28.5922 6.12773 26.6341 4.05762 23.5781C1.98758 20.5222 0.952249 17.1297 0.953126 13.4004V4.41797L11.9307 0L22.9082 4.41797ZM11.9492 14.8428C10.5131 14.8429 9.13465 15.4551 8.11914 16.5449C7.20398 17.5272 6.6502 18.8252 6.54981 20.2002C6.52856 20.4914 6.64349 20.7739 6.8418 20.9883C9.59599 23.9638 14.3013 23.9636 17.0557 20.9883C17.2541 20.7739 17.3689 20.4915 17.3477 20.2002C17.2472 18.8251 16.6936 17.5272 15.7783 16.5449C14.7628 15.4552 13.3853 14.8429 11.9492 14.8428ZM11.8203 8.48145C10.3655 8.48167 9.18562 9.74733 9.18555 11.3086C9.18555 12.8699 10.3655 14.1355 11.8203 14.1357C13.2753 14.1357 14.4551 12.8701 14.4551 11.3086C14.455 9.74719 13.2753 8.48145 11.8203 8.48145Z" fill="white"/>
</svg>
