<svg width="24" height="23" viewBox="0 0 24 23" fill="none" xmlns="http://www.w3.org/2000/svg">
<path d="M18.9551 0C19.558 0.000164738 20.0234 0.52991 19.9463 1.12793L19.0283 8.24805C18.9513 8.8461 19.4175 9.37598 20.0205 9.37598H22.9385C23.7735 9.37613 24.2407 10.3393 23.7236 10.9951L14.5596 22.6191C14.37 22.8596 14.0807 23 13.7744 23H13.1846C12.5842 23 12.1187 22.4747 12.1914 21.8789L12.9131 15.9912C12.9861 15.3952 12.5204 14.8691 11.9199 14.8691H9.85059C9.05568 14.8689 8.57888 13.9862 9.01465 13.3213L17.4482 0.452148C17.633 0.170165 17.948 0 18.2852 0H18.9551ZM8.5 16C9.32843 16 10 16.6716 10 17.5C10 18.3284 9.32843 19 8.5 19H2.5C1.67157 19 1 18.3284 1 17.5C1 16.6716 1.67157 16 2.5 16H8.5ZM7.5 10C8.32843 10 9 10.6716 9 11.5C9 12.3284 8.32843 13 7.5 13H1.5C0.671573 13 0 12.3284 0 11.5C0 10.6716 0.671573 10 1.5 10H7.5ZM10.5 4C11.3284 4 12 4.67157 12 5.5C12 6.32843 11.3284 7 10.5 7H4.5C3.67157 7 3 6.32843 3 5.5C3 4.67157 3.67157 4 4.5 4H10.5Z" fill="white"/>
</svg>
