<svg width="110" height="121" viewBox="0 0 110 121" fill="none" xmlns="http://www.w3.org/2000/svg">
<path d="M53 36.0635C76.0562 36.0635 94.7477 54.7554 94.748 77.8115V104.981H104.001C107.314 104.981 110.001 107.668 110.001 110.981V114.885C110.001 118.198 107.315 120.885 104.001 120.885H6C2.68629 120.885 0 118.198 0 114.885V110.981C0.000369784 107.668 2.68652 104.981 6 104.981H11.2529V77.8115C11.2533 54.7555 29.9439 36.0636 53 36.0635ZM50.3857 82.4512C47.0722 82.4512 44.3859 85.1376 44.3857 88.4512V105.644H61.6152V88.4512C61.6151 85.1377 58.9287 82.4514 55.6152 82.4512H50.3857ZM7.41602 10.2529C10.2626 7.40648 14.878 7.40637 17.7246 10.2529L26.1582 18.6875C29.0048 21.5341 29.0048 26.1495 26.1582 28.9961C23.3116 31.8424 18.6961 31.8426 15.8496 28.9961L7.41602 20.5615C4.5694 17.7149 4.5694 13.0995 7.41602 10.2529ZM88.6621 10.2529C91.5087 7.40634 96.1241 7.4064 98.9707 10.2529C101.817 13.0995 101.817 17.7149 98.9707 20.5615L90.5361 28.9961C87.6896 31.8422 83.075 31.8422 80.2285 28.9961C77.3819 26.1495 77.3819 21.5341 80.2285 18.6875L88.6621 10.2529ZM53.1934 0C57.2191 0 60.4824 3.26432 60.4824 7.29004V19.2178C60.4823 23.2434 57.219 26.5068 53.1934 26.5068C49.1678 26.5068 45.9044 23.2433 45.9043 19.2178V7.29004C45.9043 3.26435 49.1677 4.94767e-05 53.1934 0Z" fill="white"/>
</svg>
